<svg id="Layer_1" data-name="Layer 1" xmlns="http://www.w3.org/2000/svg" viewBox="0 0 326.74 91.86"><defs><style>.cls-1{font-size:29px;fill:#231f20;font-family:Varela Round;}.cls-2{letter-spacing:-2px;}.cls-3{font-size:15px;font-family:Shree Devanagari 714;}.cls-4{letter-spacing:1px;}.cls-5{fill:#954c9d;}.cls-6{fill:#fff;}.cls-7{fill:#ccc;}</style></defs><title>logo-options</title><text class="cls-1" transform="translate(86.04 45.98)">C<tspan x="19.63" y="0">ode</tspan><tspan class="cls-2" x="70.06" y="0"> </tspan><tspan x="75.23" y="0">o</tspan><tspan x="92.22" y="0">f</tspan><tspan class="cls-2" x="103.24" y="0"> </tspan><tspan x="107.82" y="0">C</tspan><tspan x="127.34" y="0">o</tspan><tspan x="144.91" y="0">n</tspan><tspan x="161.93" y="0">d</tspan><tspan x="180.17" y="0">uc</tspan><tspan x="212.02" y="0">t</tspan><tspan class="cls-3"><tspan class="cls-4" x="1.78" y="18">BU</tspan><tspan x="24.08" y="18">I</tspan><tspan class="cls-4" x="28.07" y="18">L</tspan><tspan x="37.48" y="18">D</tspan><tspan class="cls-4" x="48.7" y="18">ER</tspan></tspan></text><circle class="cls-5" cx="44.68" cy="45.93" r="32.63"/><path class="cls-6" d="M31.06,29.38V54.52l0.09,0h0l-0.08-.08h8.47V37.82Z"/><polygon class="cls-6" points="56.3 54.49 39.55 54.49 39.55 62.99 64.72 62.99 56.3 54.62 56.3 54.49"/><path class="cls-6" d="M58.13,26.49L58,26.38H32.78l8.45,8.5H58V26.51l0.12,0.12A1.06,1.06,0,0,1,58.13,26.49Z"/><rect class="cls-7" x="26.19" y="58.12" width="9.74" height="9.74"/></svg>